# xmcd
#
# Track frame offsets:
#	150
#	17771
#	33914
#	51925
#	71603
#	85068
#	103408
#	121973
#	137908
#	153953
#	168630
#	188475
#
# Disc length: 2861 seconds
#
# Revision: 2
# Processed by: cddbd v1.5.2PL0 Copyright (c) Steve Scherf et al.
# Submitted via: EZCDAudioConverter 7.1.0.1
#
DISCID=9e0b2b0c
DTITLE=Big and Rich - Hillbilly Jedi
DYEAR=2012
DGENRE=Country
TTITLE0=Born Again (w Bon Jovi)
TTITLE1=Party Like Cowboyz (Galactic version)
TTITLE2=That's Why I Pray
TTITLE3=Lay It All On Me
TTITLE4=Last Words
TTITLE5=Rock The Boat (w Cowboy Troy)
TTITLE6=Can't Be Satisfied
TTITLE7=Get Your Game On (Unleash The Beast version, w Cowboy Troy)
TTITLE8='Cause I Play Guitar
TTITLE9=Cheat On You
TTITLE10=Never Far Away
TTITLE11=M-E-D-L-E-Y Of The Hillbilly Jedi
EXTD=
EXTT0=
EXTT1=
EXTT2=
EXTT3=
EXTT4=
EXTT5=
EXTT6=
EXTT7=
EXTT8=
EXTT9=
EXTT10=
EXTT11=
PLAYORDER=
